<svg height="512pt" viewBox="-9 0 512 512.00113" width="512pt" xmlns="http://www.w3.org/2000/svg"><path d="m215.664062 299.890625v63.601563h-161.75c-3.058593 0-5.535156-2.472657-5.535156-5.535157 0-11.15625 3.144532-21.570312 8.609375-30.414062 2.371094-3.871094 5.207031-7.445313 8.402344-10.640625 10.507813-10.507813 25.019531-17.011719 41.054687-17.011719zm0 0" fill="#fc7979"/><path d="m167.273438 363.492188v63.59375h-161.746094c-3.050782 0-5.527344-2.476563-5.527344-5.539063 0-11.152344 3.144531-21.566406 8.597656-30.414063 2.382813-3.871093 5.207032-7.445312 8.402344-10.640624 10.507812-10.507813 25.023438-17 41.054688-17zm0 0" fill="#f44545"/><path d="m167.273438 363.492188v27.640624h-158.675782c2.382813-3.871093 5.207032-7.445312 8.402344-10.640624 10.507812-10.507813 25.023438-17 41.054688-17zm0 0" fill="#fb5858"/><path d="m215.664062 299.890625v27.652344h-158.675781c2.371094-3.871094 5.207031-7.445313 8.402344-10.640625 10.507813-10.507813 25.019531-17.011719 41.054687-17.011719zm0 0" fill="#fd9a9a"/><path d="m299.746094 496.59375h-17.261719v-99.121094c0-4.253906-3.449219-7.703125-7.707031-7.703125-4.253906 0-7.703125 3.449219-7.703125 7.703125v99.121094h-11.34375c-4.253907 0-7.703125 3.449219-7.703125 7.703125s3.449218 7.703125 7.703125 7.703125h44.015625c4.253906 0 7.703125-3.449219 7.703125-7.703125s-3.449219-7.703125-7.703125-7.703125zm0 0" fill="#ffb52d"/><path d="m376.113281 496.59375h-17.261719v-120.863281c0-4.253907-3.449218-7.703125-7.707031-7.703125-4.253906 0-7.703125 3.449218-7.703125 7.703125v120.863281h-11.34375c-4.253906 0-7.703125 3.449219-7.703125 7.703125s3.449219 7.703125 7.703125 7.703125h44.015625c4.253907 0 7.703125-3.449219 7.703125-7.703125s-3.449218-7.703125-7.703125-7.703125zm0 0" fill="#ffb52d"/><path d="m482.851562 98.675781h-144.5v-73.800781h92.839844c34.644532 0 62.730469 28.085938 62.730469 62.730469 0 6.117187-4.957031 11.070312-11.070313 11.070312zm0 0" fill="#ffc14f"/><path d="m455.242188 98.738281h-144.5v73.800781h92.839843c34.644531 0 62.730469-28.085937 62.730469-62.730468 0-6.113282-4.957031-11.070313-11.070312-11.070313zm0 0" fill="#ffa90b"/><path d="m411.953125 194.816406v92.390625c0 70.1875-53.730469 127.828125-122.304687 134.023438l.019531-.730469c43.738281-42.820312 54.222656-113.695312 55.519531-162.535156.921875-35.179688 29.828125-63.148438 65.007812-63.148438zm0 0" fill="#ff7c48"/><path d="m411.953125 89.933594v197.273437c0 71.707031-57.511719 134.578125-134.578125 134.578125h-20.019531c-14 0-25.351563-11.351562-25.351563-25.351562v-306.5c0-37.09375 20.667969-65.359375 48.429688-79.628906 32.59375-16.75 74.960937-14.214844 105.160156 16.015624 16.28125 16.28125 26.359375 38.765626 26.359375 63.613282zm0 0" fill="#1ed688"/><path d="m411.953125 89.933594v163.378906c0 74.878906-60.707031 130.808594-123.464844 134.113281-11.699219-2.238281-20.535156-12.53125-20.535156-24.886719v-306.503906c0-16.699218 4.550781-32.335937 12.480469-45.730468 32.59375-16.75 74.960937-14.214844 105.160156 16.015624 16.28125 16.28125 26.359375 38.765626 26.359375 63.613282zm0 0" fill="#35e298"/><path d="m302.375 188.519531v105.785157c0 72.898437-58.765625 132.070312-131.507812 132.71875-.410157.011718-.8125.011718-1.222657.011718h-34.5625c-3.699219 0-6.707031-3-6.707031-6.707031v-64.269531c0-96.101563 71.449219-174 167.550781-174 1.773438 0 3.398438.71875 4.558594 1.886718.265625.269532.503906.546876.707031.855469.75 1.058594 1.183594 2.339844 1.183594 3.71875zm0 0" fill="#169b62"/><path d="m302.375 188.519531v105.785157c0 72.898437-58.765625 132.070312-131.507812 132.71875-3.625-.082032-6.542969-3.039063-6.542969-6.695313v-64.269531c0-85.554688 56.628906-156.683594 136.867187-171.257813.75 1.058594 1.183594 2.339844 1.183594 3.71875zm0 0" fill="#1ab975"/><path d="m368.441406 65.5625c0 8.355469-6.773437 15.132812-15.132812 15.132812-8.355469 0-15.128906-6.777343-15.128906-15.132812s6.773437-15.128906 15.128906-15.128906c8.359375 0 15.132812 6.773437 15.132812 15.128906zm0 0" fill="#7c3f2c"/></svg>