<svg height="511pt" viewBox="-164 1 511 511.99898" width="511pt" xmlns="http://www.w3.org/2000/svg"><path d="m172.839844 312.484375c-14.140625 47.210937-42.304688 85.925781-81.054688 116.050781-85.679687-66.9375-107.199218-165.199218-80.539062-269.136718.9375-3.667969 4.503906-6.046876 8.25-5.484376l21.660156 3.207032c6.300781.929687 10.753906-6.015625 7.269531-11.355469l-19.78125-30.371094c-1.316406-2.011719-1.570312-4.535156-.683593-6.769531 14.878906-37.082031 35.160156-73.117188 59.261718-106.296875 2.257813-3.105469 6.882813-3.105469 9.140625 0 31.71875 43.902344 57.832031 93.789063 72.921875 146.019531v.011719c8.640625 29.921875 13.449219 59.972656 13.722656 89.332031.042969 4.179688 1.851563 1.164063-51.40625 55.625-4.839843 4.945313-.847656 13.234375 6.035157 12.519532.566406-.058594 27.527343-2.847657 28.09375-2.847657 4.863281-.019531 8.546875 4.699219 7.109375 9.496094zm0 0" fill="#1ab975"/><path d="m171.601562 305.878906c1.390626 1.785156 1.960938 4.1875 1.238282 6.605469-11.140625 37.203125-31.761719 71.679687-63.664063 101.273437-70.871093-65.859374-88.085937-157.375-63.210937-254.359374.941406-3.667969 4.503906-6.046876 8.25-5.484376l21.660156 3.207032c6.300781.929687 10.753906-6.015625 7.273438-11.355469l-19.78125-30.371094c-1.316407-2.011719-1.574219-4.535156-.683594-6.769531 12.160156-30.308594 27.929687-59.914062 46.441406-87.832031 25.785156 38.96875 47.097656 82.347656 60.160156 127.554687v.011719c8.640625 29.921875 13.449219 59.972656 13.722656 89.332031.042969 4.179688 1.851563 1.164063-51.40625 55.625-4.839843 4.945313-.847656 13.234375 6.035157 12.519532l27.347656-2.808594c.257813-.027344.5-.039063.746094-.039063 1.316406 1.734375 3.371093 2.910157 5.871093 2.890625zm0 0" fill="#35e298"/><g fill="#169b62"><path d="m91.777344 79.695312c-4.230469 0-7.660156 3.429688-7.660156 7.65625v416.988282c0 4.230468 3.429687 7.660156 7.660156 7.660156 4.230468 0 7.65625-3.429688 7.65625-7.660156v-416.988282c0-4.226562-3.425782-7.65625-7.65625-7.65625zm0 0"/><path d="m155.457031 108.339844-31.226562 20.472656c-1.296875.859375-2.757813 1.257812-4.199219 1.257812-2.492188 0-4.941406-1.214843-6.402344-3.453124-2.328125-3.542969-1.335937-8.292969 2.195313-10.609376l33.566406-22.007812c2.117187 4.757812 4.136719 9.539062 6.066406 14.339844zm0 0"/><path d="m169.285156 148.347656v.011719l-42.5625 32.554687c-1.390625 1.0625-3.023437 1.582032-4.648437 1.582032-2.296875 0-4.574219-1.039063-6.085938-3.011719-2.574219-3.359375-1.929687-8.160156 1.429688-10.730469l47.027343-35.976562c1.726563 5.175781 3.339844 10.375 4.839844 15.570312zm0 0"/><path d="m63.550781 247.882812c-1.410156 2.484376-4.003906 3.882813-6.667969 3.882813-1.289062 0-2.585937-.316406-3.777343-1l-51.949219-29.472656c.367188-5.554688.886719-11.140625 1.550781-16.726563l57.953125 32.882813c3.6875 2.082031 4.972656 6.757812 2.890625 10.433593zm0 0"/><path d="m44.003906 281.421875c-1.417968 2.429687-3.980468 3.789063-6.617187 3.789063-1.304688 0-2.644531-.339844-3.859375-1.054688l-31.820313-18.636719c-.582031-6.085937-.941406-12.210937-1.082031-18.378906l40.644531 23.800781c3.644531 2.136719 4.871094 6.824219 2.734375 10.480469zm0 0"/></g></svg>