<svg height="426pt" viewBox="0 -1 426.66667 426" width="426pt" xmlns="http://www.w3.org/2000/svg"><path d="m293.546875 273.398438c0 79.175781-64.183594 143.363281-143.359375 143.363281s-143.359375-64.1875-143.359375-143.363281c0-79.175782 64.183594-143.359376 143.359375-143.359376s143.359375 64.183594 143.359375 143.359376zm0 0" fill="#adf2a2"/><g fill="#54596e"><path d="m293.546875 273.398438h6.828125c-.007812-82.945313-67.242188-150.183594-150.1875-150.183594-82.949219 0-150.18359375 67.238281-150.1875 150.183594.00390625 82.949218 67.238281 150.183593 150.1875 150.1875 82.945312-.003907 150.179688-67.238282 150.1875-150.1875h-13.65625c-.003906 37.722656-15.269531 71.8125-39.988281 96.542968-24.730469 24.71875-58.820313 39.988282-96.542969 39.992188-37.726562-.003906-71.8125-15.273438-96.542969-39.992188-24.71875-24.726562-39.988281-58.820312-39.992187-96.542968.003906-37.722657 15.273437-71.8125 39.992187-96.542969 24.730469-24.714844 58.820313-39.984375 96.542969-39.988281 37.722656.003906 71.8125 15.273437 96.542969 39.992187 24.71875 24.730469 39.984375 58.820313 39.988281 96.542969h6.828125zm0 0"/><path d="m102.398438 211.960938c0 7.539062-6.109376 13.652343-13.652344 13.652343-7.539063 0-13.652344-6.113281-13.652344-13.652343 0-7.542969 6.113281-13.652344 13.652344-13.652344 7.542968 0 13.652344 6.109375 13.652344 13.652344zm0 0"/><path d="m225.28125 211.960938c0 7.539062-6.113281 13.652343-13.65625 13.652343-7.539062 0-13.652344-6.113281-13.652344-13.652343 0-7.542969 6.113282-13.652344 13.652344-13.652344 7.542969 0 13.65625 6.109375 13.65625 13.652344zm0 0"/></g><path d="m225.28125 252.921875c0 7.539063-6.113281 13.652344-13.65625 13.652344-7.539062 0-13.652344-6.113281-13.652344-13.652344 0-7.542969 6.113282-13.65625 13.652344-13.65625 7.542969 0 13.65625 6.113281 13.65625 13.65625zm0 0" fill="#fff35f"/><path d="m102.398438 252.921875c0 7.539063-6.109376 13.652344-13.652344 13.652344-7.539063 0-13.652344-6.113281-13.652344-13.652344 0-7.542969 6.113281-13.65625 13.652344-13.65625 7.542968 0 13.652344 6.113281 13.652344 13.65625zm0 0" fill="#fff35f"/><path d="m341.332031 273.398438c-7.238281 0-14.265625-2.9375-19.316406-7.984376-5.054687-5.121093-7.988281-12.15625-7.988281-19.320312 0-7.167969 2.933594-14.199219 7.988281-19.320312 5.117187-5.054688 12.152344-7.988282 19.316406-7.988282 7.167969 0 14.199219 2.933594 19.320313 7.988282 5.046875 5.121093 7.988281 12.152343 7.988281 19.320312 0 7.164062-2.941406 14.199219-7.988281 19.320312-1.300782 1.226563-2.664063 2.382813-4.164063 3.410157-1.5.957031-3.074219 1.773437-4.707031 2.457031-1.640625.683594-3.347656 1.234375-5.121094 1.574219-1.78125.339843-3.554687.542969-5.328125.542969zm0 0" fill="#61c5a8"/><path d="m341.332031 273.398438v-6.824219c-5.386719.011719-10.75-2.234375-14.496093-5.992188l.035156.035157c-3.796875-3.828126-6.03125-9.222657-6.019532-14.523438-.011718-5.300781 2.222657-10.699219 6.019532-14.527344l-4.859375-4.792968 4.796875 4.859374c3.828125-3.800781 9.222656-6.035156 14.523437-6.019531 5.296875-.015625 10.695313 2.222657 14.523438 6.019531l4.796875-4.859374-4.863282 4.792968c3.796876 3.828125 6.035157 9.230469 6.023438 14.527344.015625 5.296875-2.226562 10.695312-6.023438 14.527344l4.863282 4.792968-4.6875-4.964843c-1.125 1.0625-2.21875 1.980469-3.335938 2.742187l3.855469 5.636719-3.660156-5.761719c-1.175781.742188-2.398438 1.382813-3.671875 1.910156-1.285156.539063-2.542969.933594-3.78125 1.171876-1.457032.28125-2.796875.425781-4.042969.425781v13.652343c2.304687 0 4.511719-.265624 6.609375-.667968 2.3125-.441406 4.46875-1.144532 6.472656-1.980469 1.984375-.824219 3.90625-1.828125 5.734375-2.992187l.195313-.125c1.882812-1.289063 3.523437-2.691407 4.996094-4.082032l.175781-.171875c6.296875-6.410156 9.9375-15.078125 9.953125-24.113281-.015625-9.039062-3.65625-17.707031-9.953125-24.113281l-.066407-.066407c-6.414062-6.308593-15.082031-9.941406-24.117187-9.953124-9.03125.011718-17.703125 3.644531-24.113281 9.953124l-.0625.0625c-6.308594 6.410157-9.941406 15.082032-9.957032 24.117188.015626 9.03125 3.644532 17.703125 9.957032 24.113281l.035156.039063c6.359375 6.332031 15.050781 9.96875 24.140625 9.980468v-6.828124zm0 0" fill="#54596e"/><path d="m116.054688 293.878906h68.265624c3.769532 0 6.828126-3.054687 6.828126-6.824218 0-3.773438-3.058594-6.828126-6.828126-6.828126h-68.265624c-3.769532 0-6.828126 3.054688-6.828126 6.828126 0 3.769531 3.058594 6.824218 6.828126 6.824218" fill="#54596e"/><path d="m341.332031 198.308594c-15.078125 0-27.304687-12.226563-27.304687-27.308594v-34.132812c0-15.082032 12.226562-27.308594 27.304687-27.308594 13.175781 0 23.894531-10.71875 23.894531-23.890625 0-13.175781-10.71875-23.894531-23.894531-23.894531-13.171875 0-23.890625 10.71875-23.890625 23.894531 0 15.078125-12.226562 27.304687-27.308594 27.304687-15.078124 0-27.304687-12.226562-27.304687-27.304687 0-43.289063 35.21875-78.507813 78.503906-78.507813 43.289063 0 78.507813 35.21875 78.507813 78.507813 0 33.683593-21.332032 62.492187-51.199219 73.605469v11.726562c0 15.082031-12.226563 27.308594-27.308594 27.308594zm0 0" fill="#61c5a8"/><path d="m341.332031 198.308594v-6.828125c-11.304687-.023438-20.457031-9.175781-20.480469-20.480469v-34.132812c.023438-11.308594 9.175782-20.460938 20.480469-20.480469 16.957031-.015625 30.707031-13.761719 30.722657-30.71875-.015626-16.960938-13.765626-30.707031-30.722657-30.722657-16.957031.015626-30.703125 13.761719-30.71875 30.722657-.019531 11.304687-9.171875 20.457031-20.480469 20.480469-11.304687-.023438-20.460937-9.175782-20.480468-20.480469.003906-19.773438 8.027344-37.65625 21.023437-50.660157 13.003907-12.992187 30.886719-21.019531 50.65625-21.019531 19.773438 0 37.652344 8.027344 50.660157 21.019531 12.996093 13.003907 21.019531 30.886719 21.019531 50.660157.015625 30.742187-19.488281 57.058593-46.753907 67.207031-2.664062.992188-4.445312 3.554688-4.445312 6.398438v11.726562c-.019531 11.304688-9.171875 20.457031-20.480469 20.480469v13.652343c18.855469-.003906 34.128907-15.277343 34.132813-34.132812v-11.726562h-6.824219l2.378906 6.398437c32.46875-12.078125 55.632813-43.375 55.648438-80.003906-.015625-47.074219-38.261719-85.324219-85.335938-85.335938-47.070312.011719-85.320312 38.261719-85.332031 85.335938.003906 18.851562 15.28125 34.125 34.132812 34.128906 18.855469-.003906 34.128907-15.277344 34.132813-34.128906.003906-4.71875 1.902344-8.945313 5.007813-12.0625 3.117187-3.105469 7.34375-5.003907 12.058593-5.007813 4.71875.003906 8.945313 1.902344 12.0625 5.007813 3.105469 3.117187 5.003907 7.34375 5.003907 12.0625 0 4.714843-1.898438 8.941406-5.003907 12.054687-3.117187 3.109375-7.34375 5.007813-12.0625 5.011719-18.851562.003906-34.125 15.277344-34.132812 34.132813v34.132812c.007812 18.855469 15.28125 34.128906 34.132812 34.132812zm0 0" fill="#54596e"/></svg>