<?xml version="1.0" encoding="iso-8859-1"?>
<!-- Generator: Adobe Illustrator 19.0.0, SVG Export Plug-In . SVG Version: 6.00 Build 0)  -->
<svg version="1.1" id="Capa_1" xmlns="http://www.w3.org/2000/svg" xmlns:xlink="http://www.w3.org/1999/xlink" x="0px" y="0px"
	 viewBox="0 0 512 512" style="enable-background:new 0 0 512 512;" xml:space="preserve">
<path style="fill:#96D200;" d="M504.383,156.044c-0.114-8.463-5.987-15.713-14.132-17.447l-7.615-1.621
	c-4.976-1.059-9.712-3.03-13.97-5.814l-31.431-20.55l-53.429-8.941l-38.325-21.654c-6.797-3.84-14.471-5.859-22.278-5.859h-31.374
	l8.341-27.283l-14.197-29.239c-1.613-3.323-6.301-3.447-8.089-0.215l-11.98,21.659l-16.364-1.015
	c-13.582-0.842-27.188,1.209-39.918,6.017l-28.03,10.588l-12.616-42.379c-1.183-3.975-5.658-5.931-9.379-4.1l-24.332,11.974
	l-10.915-1.388c-4.177-0.531-7.815,2.85-7.59,7.055l1.259,23.565L92.995,66.592l-9.304-13.011
	c-2.551-3.567-7.014-5.226-11.275-4.192l-14.36,3.485c-5.004,1.214-8.718,5.496-9.279,10.697L46.668,83.1l2.949,6.543
	c2.917,6.472,3.689,13.708,2.202,20.65l-5.151,24.049l-13.113,3.689c-11.551,3.249-20.51,12.533-23.49,24.339l-1.751,6.938
	c-2.035,8.066-0.088,16.618,5.239,23.007l13.499,16.193c2.809,3.369,6.876,5.441,11.252,5.731l25.331,1.682l47.674,6.222
	c1.621,10.317,8.886,18.789,18.714,21.828l40.295,12.458l5.577,29.654l24.014,14.973v59.132c0,4.436,3.602,8.028,8.038,8.016
	l18.708-0.05c3.223-0.009,6.138,1.914,7.399,4.88l14.478,34.065c3.69,8.992,1.677,19.359-5.098,26.248l-23.79,24.196
	c-3.691,3.754-3.267,9.891,0.906,13.101l44,33.854l40.895-51.308c4.777-5.994,7.546-13.339,7.913-20.995l0.442-9.209
	c0.487-10.154,6.662-19.122,15.877-23.06l30.097-12.861c5.542-2.368,11.629-3.163,17.593-2.297l2.723,0.395
	c8.239,1.197,16.448-2.371,21.29-9.255l20.383-28.978c9.735-13.841,16.25-29.752,19.051-46.529l7.916-47.412l3.718-1.21
	c8.466-2.755,15.564-8.72,19.821-16.656l8.203-19.202c13.273,0,24.023-10.776,23.993-24.048L504.383,156.044z"/>
<path style="fill:#FFE17D;" d="M256.023,95.679L63.642,215.922l47.668,6.221c1.621,10.317,8.886,18.789,18.714,21.828l40.295,12.458
	l5.578,29.654l0.027,0.021c30.158,18.849,66.6,41.624,80.098,50.058l192.387-120.241C413.808,194.295,287.066,115.08,256.023,95.679
	z"/>
<g>
	<polyline style="fill:#82C300;" points="80.656,67.012 80.696,67.012 80.656,67.012 	"/>
	<path style="fill:#82C300;" d="M278.043,394.558l-14.479-34.066c-5.591-13.154-17.621-22.178-31.59-24.043v-32.352
		c0-10.091-4.75-19.593-12.823-25.649l-14.046-10.537l-3.274-17.409c-2.198-11.685-10.681-21.195-22.041-24.707l-37.407-11.565
		c-3.208-12.622-13.813-22.171-26.924-23.882l-47.674-6.222c-0.713-0.069-1.426-0.137-2.14-0.206l-17.321-1.083
		c-3.403-0.213-6.266-2.629-7.047-5.948l0,0c-0.946-4.022,1.435-8.077,5.408-9.21l8.663-2.47
		c11.452-3.221,20.18-12.518,22.671-24.151l6.555-29.507l51.602-35.726c9.41-6.467,14.673-17.45,13.814-28.836l-2.476-32.853
		l-12.253,6.03l-10.915-1.388c-4.177-0.531-7.815,2.85-7.59,7.055l1.259,23.565l-25.02,17.194l-9.304-13.011
		c-2.551-3.567-7.014-5.226-11.275-4.192l-14.36,3.485c-5.004,1.214-8.718,5.496-9.279,10.697L46.668,83.1l2.949,6.543
		c2.917,6.472,3.689,13.708,2.202,20.65l-5.151,24.049l-13.113,3.689c-11.551,3.249-20.51,12.533-23.49,24.339l-1.751,6.938
		c-2.035,8.066-0.088,16.618,5.239,23.007l13.499,16.193c2.809,3.369,6.876,5.441,11.252,5.731l25.331,1.682l47.674,6.222
		c1.621,10.317,8.886,18.789,18.714,21.828l40.295,12.458l5.577,29.654l24.014,14.973v59.132c0,4.436,3.602,8.028,8.038,8.016
		l18.708-0.05c3.223-0.009,6.138,1.914,7.399,4.88l14.478,34.065c3.69,8.992,1.677,19.359-5.098,26.248l-23.79,24.196
		c-3.691,3.754-3.267,9.891,0.906,13.101l16.624,12.79l28.308-26.804c0.276-0.262,0.549-0.529,0.817-0.801
		C282.11,439.75,286.781,415.844,278.043,394.558z"/>
	<polyline style="fill:#82C300;" points="305.941,32.941 305.981,32.941 305.941,32.941 	"/>
</g>
<path style="fill:#FFD164;" d="M231.974,304.097c0-10.091-4.75-19.593-12.823-25.649l-14.046-10.537l-3.274-17.409
	c-2.198-11.686-10.681-21.195-22.041-24.707l-37.407-11.565c-3.208-12.622-13.813-22.171-26.924-23.882l-9.016-1.177l-42.801,26.75
	l47.667,6.221c1.621,10.317,8.886,18.789,18.714,21.828l40.295,12.458l5.577,29.654l0.027,0.021
	c21.23,13.268,41.269,25.792,56.05,35.03v-17.036H231.974z"/>
<circle style="fill:#0096DC;" cx="256.019" cy="215.92" r="64.13"/>
<path d="M511.883,155.943c-0.163-12.051-8.417-22.201-20.071-24.681l-7.616-1.622c-4.085-0.869-7.93-2.47-11.428-4.756
	l-31.431-20.549c-0.868-0.567-1.844-0.949-2.866-1.12l-52.126-8.724L349.17,73.487c-7.907-4.467-16.887-6.829-25.968-6.829h-21.238
	l5.377-17.59c0.554-1.812,0.402-3.765-0.426-5.469L292.719,14.36c-1.974-4.066-6.007-6.667-10.526-6.787
	c-4.515-0.128-8.685,2.263-10.873,6.218l-9.685,17.51l-11.636-0.722c-14.738-0.911-29.215,1.27-43.029,6.487l-20.491,7.74
	l-10.316-34.654c-1.195-4.016-4.083-7.282-7.921-8.96c-3.838-1.679-8.198-1.581-11.958,0.27l-22.31,10.979l-8.679-1.104
	c-4.203-0.536-8.394,0.813-11.498,3.698s-4.754,6.966-4.528,11.197l1.035,19.365l-15.49,10.645l-5.022-7.024
	c-4.354-6.089-11.866-8.882-19.145-7.118l-14.36,3.485c-8.055,1.955-14.07,8.859-14.967,17.181l-2.108,19.528
	c-0.144,1.327,0.07,2.669,0.619,3.886l2.95,6.545c2.276,5.049,2.865,10.581,1.706,15.996l-4.204,19.625l-8.758,2.463
	c-14.096,3.966-25.104,15.355-28.73,29.723l-1.751,6.938c-2.614,10.358-0.09,21.441,6.75,29.645l17.897,21.47
	c1.314,1.576,3.216,2.545,5.264,2.681l32.185,2.136l0.001-0.014c0.168,0.011,0.334,0.031,0.503,0.031
	c1.357,0,2.732-0.369,3.968-1.141l188.411-117.757l12.097,7.561c3.514,2.195,8.14,1.127,10.335-2.385
	c2.195-3.513,1.127-8.14-2.385-10.335L259.998,89.32c-2.432-1.52-5.518-1.52-7.95,0L61.716,208.277l-26.561-1.763l-15.84-19.002
	c-3.777-4.53-5.171-10.65-3.728-16.37l1.751-6.938c2.315-9.176,9.308-16.439,18.248-18.954l13.113-3.688
	c2.679-0.753,4.72-2.928,5.303-5.649l5.151-24.049c1.835-8.565,0.902-17.314-2.697-25.3l-2.112-4.686l1.889-17.501
	c0.222-2.052,1.665-3.745,3.592-4.212l14.36-3.485c1.292-0.314,2.631,0.182,3.406,1.266l9.304,13.011
	c2.377,3.324,6.979,4.133,10.348,1.818l25.023-17.195c2.153-1.479,3.381-3.973,3.242-6.582l-1.211-22.666l10.022,1.274
	c1.458,0.185,2.938-0.061,4.257-0.711l23.481-11.556l12.345,41.471c0.594,1.996,1.992,3.655,3.858,4.58
	c1.867,0.925,4.033,1.032,5.981,0.296l28.03-10.588c11.813-4.462,24.192-6.331,36.8-5.547l16.368,1.015
	c2.903,0.172,5.626-1.322,7.027-3.856l9.235-16.698l10.434,21.489l-7.479,24.465c-0.695,2.274-0.271,4.743,1.144,6.654
	c1.414,1.911,3.651,3.039,6.029,3.039h31.374c6.5,0,12.929,1.69,18.589,4.888l38.325,21.654c0.76,0.43,1.59,0.723,2.452,0.867
	l51.877,8.683l30.115,19.689c5.054,3.304,10.61,5.616,16.513,6.872l7.615,1.621c4.758,1.013,8.127,5.212,8.194,10.128l0.083,35.828
	c0.01,4.413-1.701,8.563-4.817,11.687c-3.117,3.124-7.263,4.844-11.676,4.844c-3.003,0-5.717,1.792-6.897,4.554l-8.064,18.878
	c-3.371,6.122-8.823,10.66-15.383,12.795l-3.718,1.21c-2.659,0.865-4.616,3.138-5.077,5.896l-7.916,47.412
	c-2.602,15.579-8.753,30.603-17.789,43.45l-20.383,28.978c-3.226,4.586-8.623,6.94-14.078,6.149l-2.723-0.396
	c-7.331-1.064-14.802-0.089-21.613,2.821l-30.103,12.863c-11.784,5.036-19.8,16.653-20.421,29.597l-0.441,9.208
	c-0.294,6.121-2.468,11.889-6.287,16.681l-36.299,45.542L225.123,464.7c-0.375-0.288-0.475-0.659-0.493-0.919
	c-0.018-0.261,0.03-0.642,0.361-0.979l23.791-24.195c8.909-9.061,11.535-22.545,6.652-34.44l-14.479-34.065
	c-2.441-5.743-8.042-9.447-14.28-9.447c-0.013,0-0.027,0-0.041,0l-18.708,0.05c-0.035,0.005-0.214,0.001-0.366-0.151
	c-0.151-0.151-0.151-0.313-0.151-0.365v-45.566l44.638,27.899c1.216,0.76,2.596,1.14,3.975,1.14c1.379,0,2.759-0.38,3.975-1.14
	L452.384,222.28c2.193-1.371,3.525-3.774,3.525-6.36s-1.332-4.989-3.525-6.36l-149.372-93.357
	c-3.514-2.197-8.141-1.127-10.335,2.385c-2.195,3.513-1.127,8.14,2.385,10.335l139.196,86.998L256.023,327.318l-73.364-45.852
	l-4.969-26.423c-0.514-2.733-2.498-4.958-5.155-5.779l-40.295-12.458c-7.044-2.178-12.352-8.39-13.521-15.827
	c-0.644-4.092-4.48-6.887-8.574-6.245c-4.092,0.644-6.888,4.482-6.245,8.574c2.051,13.049,11.436,23.973,23.908,27.829
	l35.975,11.122l4.741,25.211c0.403,2.144,1.685,3.896,3.399,4.968l-0.003,0.006l20.489,12.805v54.941
	c0,4.152,1.619,8.054,4.559,10.986c2.93,2.922,6.819,4.53,10.957,4.53c0.014,0,0.028,0,0.042,0l18.708-0.05l0,0
	c0.208,0,0.395,0.123,0.476,0.314l14.442,33.979c2.563,6.248,1.187,13.369-3.507,18.143l-23.791,24.195
	c-3.264,3.319-4.951,7.886-4.63,12.53s2.621,8.935,6.311,11.773l44,33.854c1.362,1.048,2.971,1.556,4.569,1.556
	c2.207,0,4.391-0.97,5.87-2.826l40.895-51.308c5.795-7.271,9.094-16.024,9.54-25.312l0.441-9.208
	c0.348-7.244,4.796-13.729,11.333-16.522l30.102-12.863c4.274-1.826,8.964-2.437,13.563-1.771l2.722,0.396
	c11.084,1.611,22.006-3.126,28.503-12.363l20.383-28.978c10.321-14.673,17.346-31.828,20.315-49.609l7.167-42.929
	c10.079-3.45,18.407-10.546,23.5-20.04c0.104-0.195,0.201-0.395,0.288-0.599l6.434-15.061c6.476-1.054,12.441-4.101,17.167-8.837
	c5.951-5.965,9.218-13.89,9.199-22.316L511.883,155.943z"/>
<path d="M327.651,215.921c0-39.496-32.132-71.629-71.628-71.629s-71.629,32.133-71.629,71.629s32.133,71.629,71.629,71.629
	S327.651,255.417,327.651,215.921z M256.023,159.292c31.225,0,56.628,25.404,56.628,56.629c0,5.246-0.732,10.322-2.074,15.147
	c-18.996-28.781-51.517-46.695-86.619-46.695c-5.28,0-10.526,0.404-15.702,1.19C218.319,169.786,235.963,159.292,256.023,159.292z
	 M199.394,215.921c0-4.673,0.58-9.211,1.652-13.557c7.438-1.983,15.131-2.991,22.912-2.991c33.278,0,63.846,18.822,78.955,48.264
	c-10.193,15.023-27.408,24.914-46.89,24.914C224.798,272.549,199.394,247.146,199.394,215.921z"/>
<g>
</g>
<g>
</g>
<g>
</g>
<g>
</g>
<g>
</g>
<g>
</g>
<g>
</g>
<g>
</g>
<g>
</g>
<g>
</g>
<g>
</g>
<g>
</g>
<g>
</g>
<g>
</g>
<g>
</g>
</svg>
